# xmcd
#
# Track frame offsets:
#	150
#	18432
#	33365
#	48060
#
# Disc length: 918 seconds
#
# Revision: 0
# Processed by: cddbd v1.5.2PL0 Copyright (c) Steve Scherf et al.
# Submitted via: audiograbber 1.83.01
#
DISCID=23039404
DTITLE=Eileen Rose - Party Dress EP
DYEAR=2001
DGENRE=Rock
TTITLE0=Party Dress
TTITLE1=That's No Way To Say Goodbye
TTITLE2=Booze Talkin' (I Ain't Listenin')
TTITLE3=New Penny
EXTD=
EXTT0=
EXTT1=
EXTT2=
EXTT3=
PLAYORDER=
